<svg width="1440" height="1024" viewBox="0 0 1440 1024" fill="none" xmlns="http://www.w3.org/2000/svg">
<g id="logo-found">
<rect width="1440" height="1024" fill="white"/>
<g id="eye">
<path id="upper eyelid" d="M632.147 393.875C621.747 413.075 620.48 441.875 621.147 453.875C621.216 455.375 630.647 456.375 638.647 456.375C646.647 456.375 628.647 450.875 626.647 449.875C624.647 448.875 624.647 438.375 628.647 420.375C632.647 402.375 636.647 393.875 655.147 374.375C673.647 354.875 700.147 351.375 712.647 351.375C725.147 351.375 728.647 353.875 731.147 360.375C733.647 366.875 733.647 347.875 728.647 347.375C723.647 346.875 694.647 346.375 681.647 351.375C668.647 356.375 645.147 369.875 632.147 393.875Z" fill="black"/>
<path id="lower eyelid" d="M727.647 375.375C729.247 365.375 726.98 356.875 725.647 353.875C725.48 353.375 724.947 351.875 724.147 349.875C723.147 347.375 727.647 343.375 731.147 353.875C734.647 364.375 733.147 377.375 731.147 386.875C729.147 396.375 718.647 420.875 707.647 430.875C696.647 440.875 679.147 450.375 664.147 454.875C649.147 459.375 635.647 457.875 632.647 456.875C629.647 455.875 623.147 453.375 622.647 447.875C622.147 442.375 627.147 449.375 629.147 450.375C631.147 451.375 631.647 453.375 652.147 451.875C672.647 450.375 687.147 440.875 692.147 436.875C697.147 432.875 707.647 421.875 712.647 414.375C717.647 406.875 725.647 387.875 727.647 375.375Z" fill="black"/>
<path id="iris" fill-rule="evenodd" clip-rule="evenodd" d="M686.783 443.805C699.716 432.851 699.559 411.406 686.432 395.908C673.304 380.409 652.178 376.725 639.245 387.68C626.311 398.635 626.469 420.079 639.596 435.578C652.723 451.076 673.85 454.76 686.783 443.805ZM683.679 440.299C693.659 431.846 692.62 414.215 681.359 400.919C670.097 387.623 652.877 383.698 642.897 392.151C632.917 400.604 633.956 418.235 645.218 431.531C656.479 444.826 673.699 448.752 683.679 440.299Z" fill="black"/>
</g>
<path id="eye background" fill-rule="evenodd" clip-rule="evenodd" d="M674 294C628.713 294 592 330.713 592 376V427C592 472.287 628.713 509 674 509H677C722.287 509 759 472.287 759 427V376C759 330.713 722.287 294 677 294H674ZM629.139 449.508L629.143 449.508L629.141 449.622L629.139 449.508ZM621.147 453.875C621.193 454.865 625.318 455.638 630.419 456.048C631.255 456.397 632.026 456.668 632.647 456.875C635.647 457.875 649.147 459.375 664.147 454.875C679.147 450.375 696.647 440.875 707.647 430.875C718.647 420.875 729.147 396.375 731.147 386.875C732.749 379.262 734.031 369.402 732.676 360.382C733.167 356.879 732.098 347.72 728.647 347.375C728.241 347.334 727.678 347.294 726.979 347.256C726.29 346.917 725.668 346.94 725.174 347.178C715.724 346.844 692.798 347.086 681.647 351.375C668.647 356.375 645.147 369.875 632.147 393.875C621.747 413.075 620.48 441.875 621.147 453.875Z" fill="black"/>
<g id="mask fin">
<path id="eyeOneEnd" d="M599.628 373.23H592.015C592.015 363.811 595.568 340.633 609.779 323.275C623.991 305.916 642.77 298.213 650.384 296.531L653.429 304.1C651.399 304.772 645.613 306.925 638.71 310.155C630.082 314.192 622.468 320.247 621.961 327.311C621.555 332.963 632.958 345.813 638.71 351.532L632.619 356.578C628.559 351.7 619.727 341.339 616.885 338.917C613.332 335.89 611.81 337.908 605.719 348C600.847 356.074 599.628 368.184 599.628 373.23Z" fill="#2A26D5"/>
<path id="eyeTwoEnd" d="M599.628 392.91V369.698C597.26 369.025 592.421 368.083 592.015 369.698C591.508 371.716 591 433.782 591 439.333C591 443.774 593.03 448.921 594.045 450.939L601.151 446.398C599.628 442.361 596.076 418.14 599.628 411.075C602.471 405.424 607.242 405.02 610.287 405.02V398.46H605.719C603.181 398.46 599.628 394.423 599.628 392.91Z" fill="#2A26D5"/>
<path id="eyeThreeEnd" d="M622.468 398.46H609.779V405.02H615.363C617.9 405.02 621.453 405.525 620.946 408.048C620.54 410.066 618.746 422.681 617.9 428.736H625.006C625.514 422.681 628.051 413.598 628.559 406.534C628.965 400.882 635.834 391.732 639.218 387.864L635.665 383.322C635.326 384.163 634.142 386.451 632.112 388.873C629.574 391.9 625.006 398.46 622.468 398.46Z" fill="#2A26D5"/>
<path id="eyeFourEnd" d="M606.227 456.994C603.79 453.765 601.828 448.584 601.151 446.398L593.03 448.416C593.876 452.621 597.497 463.756 605.211 474.655C612.926 485.555 628.051 496.353 634.65 500.39L638.71 492.821C636.172 491.812 609.272 477.683 614.347 469.105C618.408 462.242 624.498 458.508 627.036 457.499C625.344 456.321 621.961 453.159 621.961 449.93C621.961 446.7 622.976 434.455 623.483 428.736H617.9C617.9 431.259 618.408 449.425 618.408 452.453C618.408 455.48 615.363 456.994 614.347 457.499C613.332 458.003 609.272 461.031 606.227 456.994Z" fill="#2A26D5"/>
<path id="eyeFiveEnd" d="M638.71 458.003H624.498L620.946 447.911C621.284 447.407 622.468 447.003 624.498 449.425C626.529 451.847 630.42 452.453 632.112 452.453C639.387 452.957 656.677 453.058 667.64 449.425C678.604 445.792 685.066 439.501 686.927 436.81L692.511 442.361C689.973 444.884 686.927 448.416 686.927 452.453V481.72H680.329C680.668 472.973 680.735 455.178 678.299 453.967C675.254 452.453 665.103 454.471 661.55 455.985C657.997 457.499 643.785 458.003 638.71 458.003Z" fill="#2A26D5"/>
<path id="eyeSixEnd" d="M656.474 500.39C647.541 498.775 637.187 492.653 633.127 489.793L631.604 498.372C639.218 506.445 674.239 517.546 696.063 509.473C713.523 503.014 726.686 492.653 731.085 488.28L726.009 482.729C721.779 486.429 712.407 494.234 708.752 495.849C704.184 497.867 699.109 497.362 701.139 490.298C702.763 484.646 709.26 477.515 712.305 474.655L707.737 469.609C707.06 470.282 704.996 472.536 702.154 476.169C698.601 480.711 692.511 492.316 689.465 497.362C687.029 501.399 686.758 499.044 686.927 497.362V477.178H680.329C680.498 483.738 680.735 497.362 680.329 499.381C679.822 501.904 667.64 502.408 656.474 500.39Z" fill="#2A26D5"/>
<path id="eyeSevenEnd" d="M704.184 422.177C699.718 427.424 688.45 436.474 683.375 440.342L687.435 446.398C692.511 444.379 700.631 432.269 704.184 434.287C707.027 435.902 712.474 444.379 714.843 448.416L720.426 443.875C718.396 439.838 710.782 431.562 710.782 426.718C710.782 421.874 714.505 420.663 716.366 420.663L710.782 413.598C710.444 414.271 708.651 416.929 704.184 422.177Z" fill="#2A26D5"/>
<path id="eyeEightEnd" d="M719.918 398.46C716.264 405.323 710.613 413.43 708.245 416.626L711.29 423.69C710.952 424.7 710.681 426.113 712.305 423.69C714.335 420.663 715.35 423.186 717.381 427.727C719.005 431.36 724.486 435.969 727.024 437.819L731.592 432.773C723.877 431.159 722.287 423.018 722.456 419.149C724.486 407.442 733.453 404.516 737.683 404.516V398.46H728.547C727.735 398.46 728.885 390.05 729.562 385.845L724.486 383.827C724.486 385.845 723.573 391.598 719.918 398.46Z" fill="#2A26D5"/>
<path id="eyeNineEnd" d="M716.366 451.948C715.96 449.526 713.828 446.229 712.813 444.884C714.335 443.37 717.888 440.948 719.918 443.37C722.456 446.397 720.934 448.92 723.979 452.957C727.024 456.994 728.039 455.985 735.145 454.471C742.251 452.957 745.296 452.957 747.326 448.416C749.357 443.874 747.834 435.296 745.804 437.315C743.773 439.333 738.698 440.847 734.637 440.342C731.389 439.939 726.855 437.483 724.994 436.305L729.562 432.269C731.592 432.773 736.668 433.48 740.728 432.269C744.789 431.058 748.172 426.718 749.357 424.7L757.985 425.204C758.154 428.736 758.391 437.315 757.985 443.37C757.477 450.939 752.402 464.563 747.326 470.618C743.266 475.463 733.792 485.42 729.562 489.793L724.994 483.738C728.039 481.72 735.247 475.463 739.713 466.582C745.296 455.48 732.607 460.022 728.039 462.545C724.385 464.563 715.35 472.132 711.29 475.664L707.23 470.114C708.245 468.936 710.986 465.976 713.828 463.554C717.381 460.526 716.873 454.976 716.366 451.948Z" fill="#2A26D5"/>
<path id="eyeTenEnd" d="M729.054 387.864L723.979 385.341C725.603 374.441 724.656 362.634 723.979 358.092L733.115 357.083C733.622 361.12 734.13 365.661 738.698 371.716C742.352 376.561 745.296 379.454 746.311 380.295L743.773 386.35C741.236 384.836 739.713 383.322 736.16 380.799C732.607 378.276 730.07 378.781 730.07 381.808C730.07 384.23 729.393 386.854 729.054 387.864Z" fill="#2A26D5"/>
<path id="eyeElevenEnd" d="M745.804 406.534C743.367 404.516 738.021 404.347 735.653 404.516L735.149 398.51C731.771 398.843 733.69 398.621 735.145 398.46L735.149 398.51C735.305 398.495 735.473 398.478 735.653 398.46C740.728 397.956 746.819 401.488 748.341 401.488C749.864 401.488 750.879 391.396 749.864 390.387C749.052 389.579 742.42 385.341 739.205 383.322C739.713 380.463 741.337 375.45 743.773 378.276C746.819 381.808 749.864 381.304 749.864 380.295V366.166H759V392.405C759 397.249 758.662 416.962 758.492 426.213H748.341C748.849 425.541 750.067 422.984 750.879 418.14C751.894 412.085 748.849 409.057 745.804 406.534Z" fill="#2A26D5"/>
<path id="eyeTwelveEnd" d="M724.486 360.111C724.08 354.459 719.58 352.037 717.381 351.532V344.972H722.964C726.707 344.972 729.224 341.608 730.07 340.431L735.145 344.468C734.638 344.804 733.521 346.284 733.115 349.514C732.709 352.743 732.946 357.588 733.115 359.606L724.486 360.111Z" fill="#2A26D5"/>
<path id="eyeThirteenEnd" d="M731.592 331.348C731.592 328.522 728.885 325.798 727.532 324.788C722.456 323.779 720.426 323.779 716.366 324.788C713.117 325.596 711.967 329.498 711.798 331.348H704.184C704.184 329.33 705.707 325.293 708.752 321.761C711.798 318.229 713.828 319.238 714.335 315.201C714.741 311.971 709.091 309.146 706.215 308.136V298.549C709.767 299.054 723.979 306.623 730.069 312.173C736.16 317.724 746.819 329.834 748.849 333.367C750.879 336.899 756.97 350.523 757.985 355.569C758.797 359.606 759 364.988 759 367.175H749.864C749.864 365.493 749.661 361.322 748.849 358.092C747.834 354.055 743.773 342.954 742.251 340.936C741.033 339.321 736.668 342.954 734.637 344.972L730.069 340.431C731.592 337.908 731.592 334.88 731.592 331.348Z" fill="#2A26D5"/>
<path id="eyeFourteenEnd" d="M708.752 350.523C712.001 350.523 716.535 351.196 718.396 351.532L717.888 344.972C715.858 344.468 714.335 342.954 712.305 338.413C710.681 334.78 711.628 330.507 712.305 328.825H704.692C703.677 332.357 704.184 339.422 704.692 341.945C705.098 343.963 697.417 345.141 693.526 345.477L694.541 352.542C697.924 351.869 705.504 350.523 708.752 350.523Z" fill="#2A26D5"/>
<path id="eyeFifteenEnd" d="M669.671 362.634L664.595 356.074C667.133 354.055 677.792 350.523 678.807 347.495C679.619 345.073 679.483 333.03 679.314 327.311H686.927C686.927 332.694 687.029 343.761 687.435 344.972C687.841 346.183 693.695 345.477 696.571 344.972L698.094 352.037L683.882 356.074C681.04 356.881 673.224 360.783 669.671 362.634Z" fill="#2A26D5"/>
<path id="eyeSixteenEnd" d="M666.118 302.586C658.403 302.586 649.03 305.613 645.308 307.127L642.263 298.549C643.616 297.708 649.978 295.521 664.595 293.503C679.213 291.485 698.77 296.026 706.722 298.549V308.136C703.677 306.623 686.927 302.586 686.927 304.1V331.853H679.314V310.659C679.314 304.604 675.761 302.586 666.118 302.586Z" fill="#2A26D5"/>
<path id="eyeSeventeenEnd" d="M640.74 375.249C639.522 378.074 634.819 384.836 632.619 387.864L635.665 395.433C636.68 392.91 646.831 379.285 652.921 373.735C657.794 369.294 666.795 364.147 670.686 362.129L665.61 355.569C664.088 356.578 663.58 357.083 661.55 359.101C659.52 361.12 653.937 363.643 650.891 362.634C648.455 361.826 639.725 352.878 635.665 348.505L630.082 353.551C631.773 355.569 635.868 360.413 638.71 363.643C642.263 367.68 642.263 371.716 640.74 375.249Z" fill="#2A26D5"/>
</g>
<path id="eyeMotionPath" d="M528 482C536.167 510.5 577.1 567.1 675.5 565.5C773.9 563.9 808.167 509.167 813 482" stroke="black"/>
<g id="mask starts">
<circle id="eyeOne" cx="613.5" cy="328.5" r="2.5" fill="#D9D9D9"/>
<circle id="eyeTwo" cx="596.5" cy="402.5" r="2.5" fill="#D9D9D9"/>
<circle id="eyeThree" cx="624.5" cy="402.5" r="2.5" fill="#D9D9D9"/>
<circle id="eyeFour" cx="607.5" cy="466.5" r="2.5" fill="#D9D9D9"/>
<circle id="eyeFive" cx="682.5" cy="448.5" r="2.5" fill="#D9D9D9"/>
<circle id="eyeSix" cx="684.5" cy="506.5" r="2.5" fill="#D9D9D9"/>
<circle id="eyeSeven" cx="705.5" cy="428.5" r="2.5" fill="#D9D9D9"/>
<circle id="eyeEight" cx="719.5" cy="410.5" r="2.5" fill="#D9D9D9"/>
<circle id="eyeNine" cx="748.5" cy="456.5" r="2.5" fill="#D9D9D9"/>
<circle id="eyeTen" cx="730.5" cy="370.5" r="2.5" fill="#D9D9D9"/>
<circle id="eyeEleven" cx="754.5" cy="398.5" r="2.5" fill="#D9D9D9"/>
<circle id="eyeTwelve" cx="726.5" cy="350.5" r="2.5" fill="#D9D9D9"/>
<circle id="eyeThirteen" cx="732.5" cy="321.5" r="2.5" fill="#D9D9D9"/>
<circle id="eyeFourteen" cx="708.5" cy="345.5" r="2.5" fill="#D9D9D9"/>
<circle id="eyeFifteen" cx="683.5" cy="351.5" r="2.5" fill="#D9D9D9"/>
<circle id="eyeSixteen" cx="679.5" cy="298.5" r="2.5" fill="#D9D9D9"/>
<circle id="eyeSeventeen" cx="648.5" cy="370.5" r="2.5" fill="#D9D9D9"/>
</g>
<g id="type fin">
<path id="eOneLeftF" d="M165 590.5C165 584.5 160.667 581 158.5 580V577H182.5V708.5H160.5V704.5C164.1 703.7 165 701.5 165 700.5V590.5Z" fill="black"/>
<path id="eOneTopF" d="M229.5 580.5H149.5V576H246.5C247.833 585.167 250.8 605 252 611C253.2 617 250.833 614.167 249.5 612L229.5 580.5Z" fill="black"/>
<path id="eOneMiddleF" d="M188 640.5C184 642.5 184 643.667 184.5 644H233C237 644 235.667 641.667 234.5 640.5L222.5 626.5C220.1 623.7 215.833 625.333 214 626.5C207 630.333 192 638.5 188 640.5Z" fill="black"/>
<path id="eOneBottomF" d="M237.5 704.5H151V709.5H256.5C259.333 700.667 265.5 681.2 267.5 674C269.5 666.8 264.667 671 262 674L237.5 704.5Z" fill="black"/>
<path id="yLeftF" d="M272 625H263.5V621.5H306V625H297C292.6 625 292.833 628.667 293.5 630.5L321 692.5L312 713L277.5 632.5C275.1 626.9 272.833 625.167 272 625Z" fill="black"/>
<path id="yBottomF" d="M288 733.5C279.6 736.3 278.5 744.667 279 748.5C280.167 751 284 755.6 290 754C297.5 752 300.5 740.5 302.5 737.5C304.1 735.1 315.167 711.5 320.5 700L316.5 697.5C314.167 703 308.5 715.9 304.5 723.5C299.5 733 298.5 730 288 733.5Z" fill="black"/>
<path id="yTopF" d="M331.5 625V621.5H365.5V625H358C354.8 625 352.667 628.333 352 630L317.5 707L313.5 705C323 683.667 342.6 639.9 345 635.5C347.4 631.1 346 626.667 345 625H331.5Z" fill="black"/>
<path id="eTwoLeftF" d="M364.5 647.5C372.9 625.5 392 619 400.5 618.5V622C397.5 622.833 390.2 625.9 385 631.5C378.5 638.5 379 649.5 379 654C379 658.5 383 652.5 389.5 650C394.7 648 399.667 651.167 401.5 653V657C400 656 395 652.5 388 655.5C381 658.5 379.5 667.5 380.5 675C381.5 682.5 393 699.5 408.5 702C424 704.5 432.5 696 437.5 691.5C442.5 687 448 673 447.5 679C447 685 438.5 698 436.5 699.5C434.5 701 424.5 711 411 711.5C397.5 712 386 708.5 379.5 703.5C373 698.5 354 675 364.5 647.5Z" fill="black"/>
<path id="eTwoRightF" d="M406 659.5C403.6 658.3 400.333 656.333 399 655.5V651.151C402.5 653.151 410.3 659 417.5 659C426.5 659 426.5 651 426 644.5C425.5 638 421 629 414.5 624.5C409.3 620.9 403 621.5 400 622V618.5C411 617 424 621.5 434 628.5C444 635.5 446.5 655.5 445.5 658.5C444.5 661.5 438.5 665.5 428 665.5C417.5 665.5 409 661 406 659.5Z" fill="black"/>
<path id="dashF" d="M470 659.5C464 657.9 467.5 656.833 470 656.5C475 654.833 485.8 651.3 489 650.5C492.2 649.7 496.333 650.167 498 650.5C503.167 652 514.6 655.3 519 656.5C523.4 657.7 520.833 659 519 659.5C513.333 660.833 501.2 663.7 498 664.5C494.8 665.3 490.667 664.833 489 664.5C485.167 663.5 476 661.1 470 659.5Z" fill="black"/>
<path id="cOneLeftF" d="M615 578V572C595.5 572 580 576.5 559.5 593.5C543.1 607.1 539 634.5 539 646.5C539.167 655.667 543.9 677.9 561.5 693.5C579.1 709.1 604.5 712 615 711.5V706.5C571.8 706.5 560 666.5 559.5 646.5C559.5 589.7 596.5 577.167 615 578Z" fill="black"/>
<path id="cOneTopF" d="M638 581.5C634 579.1 620.333 578.167 614 578V572C640.8 572 655.833 578.333 660 581.5C660.833 587.5 662.7 602.1 663.5 612.5C664.3 622.9 660.167 616.833 658 612.5C653 603.167 642 583.9 638 581.5Z" fill="black"/>
<path id="cOneBottomF" d="M640 703.5C636 705.9 620.333 706.5 613 706.5V711.5C616.2 711.5 625.667 711.167 630 711C647.2 709.8 657.5 705.5 660.5 703.5C661.833 697.167 664.7 681.9 665.5 671.5C666.3 661.1 661.833 667.167 659.5 671.5C654.667 681.167 644 701.1 640 703.5Z" fill="black"/>
<path id="aBottomF" d="M728.5 643.5L726 645C726.8 646.6 726.333 648.667 726 649.5C724.5 654 705.5 664.5 703.5 665C701.5 665.5 683 673.5 683 690C683 706.5 698.5 712.5 714.5 712.5C727.3 712.5 736.833 698.833 740 692V685.5C737.333 689.833 731.3 699 728.5 701C725 703.5 709 707 703.5 693C698 679 719.5 660.5 726 655.5C731.2 651.5 729.833 645.833 728.5 643.5Z" fill="black"/>
<path id="aTopF" d="M753 640.5H737C737 638.5 735.4 633.2 729 628C721 621.5 708.5 628 705 631.5C701.5 635 698.5 642 701.5 645.5C704.5 649 715.5 644 721 641C725.4 638.6 728.167 642.333 729 644.5L726.5 646C721.5 635 715 652 699 655C683 658 683.5 645 686.5 640.5C689.5 636 701.654 615.128 727.5 618C745.5 620 753.167 632.833 753 640.5Z" fill="black"/>
<path id="aRightF" d="M737 708.5V640.5H753V701.5H766.5V705C763.833 706.167 756.3 708.8 747.5 710C738.7 711.2 736.833 709.5 737 708.5Z" fill="black"/>
<path id="tF" d="M770.5 628.5C770.5 627.3 790.833 611 801 603H804.5V622.5H837.5C837.5 623.7 833.5 627.667 831.5 629.5H804.5C803.833 649.5 803.2 691.2 806 698C809.5 706.5 826.5 701.5 830 700C832.8 698.8 833.833 700.5 834 701.5C831.5 704.5 822.8 710.6 808 711C793.2 711.4 789.167 702.5 789 698V629.5C782.833 629.667 770.5 629.7 770.5 628.5Z" fill="black"/>
<path id="cTwoLeftF" d="M877 623.5L875 620C870 621 858.5 628.5 852.5 636.5C846.5 644.5 839 663.5 845.5 684C852 704.5 876 717 897.5 711C919 705 925.5 687.5 925 680.5C924.6 674.9 922.167 681.167 921 685C916 694 906.5 704 891 702C875.5 700 862 691 859.5 661C857.5 637 870.333 626 877 623.5Z" fill="black"/>
<path id="cTwoRightF" d="M886 618C880 618.8 876.167 619.667 875 620L876.5 623.5C882 622 890.5 622.5 897 625C903.5 627.5 905 635.5 906 644C907 652.5 916 648.5 918.5 644.5C921 640.5 922 633.5 915 626.5C908 619.5 893.5 617 886 618Z" fill="black"/>
<path id="hLeftF" d="M956 571L934 580C928 582.455 936 585 940 587.5C943.2 589.5 944.667 592.667 945 594V701.5C945 704.7 942.667 705.5 941.5 705.5H932.5V710H974V705.5H966.5C962.1 705.5 961 702.833 961 701.5V571C961 569.4 957.667 570.333 956 571Z" fill="black"/>
<path id="hRightF" d="M976.5 622.5C967.7 627.7 961.167 637.333 959 641.5V649.5C961.833 642.167 970.8 627.6 984 628C997.2 628.4 1001.5 640.833 1002 647V700C1002 704.8 999.667 706 998.5 706H989V710H1031V706H1023.5C1018.7 706 1017.5 703 1017.5 701.5V649.5C1017.5 645 1016.5 634 1008 626C999.5 618 987.5 616 976.5 622.5Z" fill="black"/>
<path id="eThreeLeftF" d="M1039.1 647.289C1047.5 625.289 1066.6 618.789 1075.1 618.289V621.789C1072.1 622.622 1064.8 625.689 1059.6 631.289C1053.1 638.289 1053.6 649.289 1053.6 653.789C1053.6 658.289 1057.6 652.289 1064.1 649.789C1069.3 647.789 1074.27 650.955 1076.1 652.789V656.789C1074.6 655.789 1069.6 652.289 1062.6 655.289C1055.6 658.289 1054.1 667.289 1055.1 674.789C1056.1 682.289 1067.6 699.289 1083.1 701.789C1098.6 704.289 1107.1 695.789 1112.1 691.289C1117.1 686.789 1122.6 672.789 1122.1 678.789C1121.6 684.789 1113.1 697.789 1111.1 699.289C1109.1 700.789 1099.1 710.789 1085.6 711.289C1072.1 711.789 1060.6 708.289 1054.1 703.289C1047.6 698.289 1028.6 674.789 1039.1 647.289Z" fill="black"/>
<path id="eThreeRightF" d="M1080.6 659.288C1078.2 658.088 1074.93 656.122 1073.6 655.288V650.94C1077.1 652.94 1084.9 658.789 1092.1 658.789C1101.1 658.789 1101.1 650.789 1100.6 644.289C1100.1 637.789 1095.6 628.789 1089.1 624.289C1083.9 620.689 1077.6 621.289 1074.6 621.789V618.288C1085.6 616.788 1098.6 621.288 1108.6 628.288C1118.6 635.288 1121.1 655.288 1120.1 658.288C1119.1 661.288 1113.1 665.288 1102.6 665.288C1092.1 665.288 1083.6 660.788 1080.6 659.288Z" fill="black"/>
<path id="rLeftF" d="M1155.5 622C1152.3 623.2 1140.5 627.833 1135 630C1131.5 631.377 1138 633 1142.5 635C1146.1 636.6 1147.67 639.667 1148 641V700.5C1148 704.1 1145.67 705.333 1144.5 705.5H1135V710.5H1179V705.5H1169.5C1164.7 705.5 1163.83 702.833 1164 701.5V622C1164 618.5 1159.5 620.5 1155.5 622Z" fill="black"/>
<path id="rRightF" d="M1187 623.5C1184.6 625.1 1169.33 634.5 1162 639V641C1168.83 640.833 1184.1 640.2 1190.5 639C1196.9 637.8 1197.83 636.833 1197.5 636.5V622C1197.5 615.5 1190 621.5 1187 623.5Z" fill="black"/>
</g>
<g id="type starts">
<ellipse id="eOneLeft" cx="174" cy="643" rx="5" ry="7" fill="#D9D9D9"/>
<ellipse id="eOneTop" cx="241" cy="585" rx="5" ry="7" transform="rotate(-9.7493 241 585)" fill="#D9D9D9"/>
<ellipse id="eOneMiddle" cx="217.113" cy="635.746" rx="5" ry="7" transform="rotate(-90.4026 217.113 635.746)" fill="#D9D9D9"/>
<ellipse id="eOneBottom" cx="252.055" cy="697.599" rx="5" ry="7" transform="rotate(-146.096 252.055 697.599)" fill="#D9D9D9"/>
<ellipse id="yLeft" cx="299.366" cy="663.409" rx="5" ry="7" transform="rotate(156.641 299.366 663.409)" fill="#D9D9D9"/>
<ellipse id="yTop" cx="349.737" cy="626.095" rx="5" ry="3.60391" transform="rotate(103.977 349.737 626.095)" fill="#D9D9D9"/>
<ellipse id="yBottom" cx="290.366" cy="743.409" rx="5" ry="7" transform="rotate(-135.662 290.366 743.409)" fill="#D9D9D9"/>
<ellipse id="eTwoLeft" cx="370.884" cy="674.601" rx="5" ry="7" transform="rotate(172.383 370.884 674.601)" fill="#D9D9D9"/>
<ellipse id="eTwoRight" cx="434.884" cy="647.601" rx="5" ry="7" transform="rotate(172.383 434.884 647.601)" fill="#D9D9D9"/>
<ellipse id="dash" cx="493" cy="658" rx="5" ry="7" transform="rotate(-90 493 658)" fill="#D9D9D9"/>
<ellipse id="cOneLeft" cx="550" cy="647" rx="5" ry="7" transform="rotate(-180 550 647)" fill="#D9D9D9"/>
<ellipse id="cOneTop" cx="651.938" cy="589.212" rx="5" ry="7" transform="rotate(161.784 651.938 589.212)" fill="#D9D9D9"/>
<ellipse id="cOneBottom" cx="652.283" cy="698.588" rx="5" ry="7" transform="rotate(-141.206 652.283 698.588)" fill="#D9D9D9"/>
<ellipse id="aBottom" cx="693.203" cy="690.801" rx="5" ry="7" transform="rotate(169.395 693.203 690.801)" fill="#D9D9D9"/>
<ellipse id="aTop" cx="695.203" cy="645.801" rx="5" ry="7" transform="rotate(169.395 695.203 645.801)" fill="#D9D9D9"/>
<ellipse id="aRight" cx="745.203" cy="663.801" rx="5" ry="7" transform="rotate(180 745.203 663.801)" fill="#D9D9D9"/>
<ellipse id="t" cx="797" cy="627" rx="5" ry="7" transform="rotate(180 797 627)" fill="#D9D9D9"/>
<ellipse id="cTwoLeft" cx="855.914" cy="683.2" rx="5" ry="7" transform="rotate(162.054 855.914 683.2)" fill="#D9D9D9"/>
<ellipse id="cTwoRight" cx="911.914" cy="635.2" rx="5" ry="7" transform="rotate(162.054 911.914 635.2)" fill="#D9D9D9"/>
<ellipse id="hLeft" cx="951.914" cy="643.2" rx="5" ry="7" transform="rotate(-180 951.914 643.2)" fill="#D9D9D9"/>
<ellipse id="hRight" cx="1009" cy="666" rx="5" ry="7" transform="rotate(-180 1009 666)" fill="#D9D9D9"/>
<ellipse id="eThreeLEft" cx="1052" cy="687" rx="5" ry="7" transform="rotate(150.684 1052 687)" fill="#D9D9D9"/>
<ellipse id="eThreeRight" cx="1109.79" cy="646.552" rx="5" ry="7" transform="rotate(150.684 1109.79 646.552)" fill="#D9D9D9"/>
<ellipse id="rLeft" cx="1155" cy="671" rx="5" ry="7" transform="rotate(-180 1155 671)" fill="#D9D9D9"/>
<ellipse id="rRight" cx="1188.59" cy="631.952" rx="5" ry="7" transform="rotate(-122.038 1188.59 631.952)" fill="#D9D9D9"/>
</g>
</g>
</svg>
