<svg width="1440" height="1024" viewBox="0 0 1440 1024" fill="none" xmlns="http://www.w3.org/2000/svg">
<g id="logo-custom">
<rect width="1440" height="1024" fill="white"/>
<g id="dotRight">
<mask id="path-1-inside-1_17_2" fill="white">
<path d="M1122.01 503.548C1132 503.548 1140.1 495.448 1140.1 485.456C1140.1 475.463 1132 467.363 1122.01 467.363C1112.03 467.363 1103.93 475.463 1103.93 485.456C1103.93 495.448 1112.03 503.548 1122.01 503.548Z"/>
</mask>
<path d="M1122.01 503.548C1132 503.548 1140.1 495.448 1140.1 485.456C1140.1 475.463 1132 467.363 1122.01 467.363C1112.03 467.363 1103.93 475.463 1103.93 485.456C1103.93 495.448 1112.03 503.548 1122.01 503.548Z" fill="#482011" stroke="#482011" stroke-width="2" mask="url(#path-1-inside-1_17_2)"/>
</g>
<g id="wag">
<path id="tThe" d="M394.302 390.871C395.249 394.707 394.444 398.875 393.166 402.096C392.124 404.654 390.515 407.401 389.236 408.632L387.958 407.969C389.52 395.323 383.507 392.86 361.302 383.814L345.394 377.325C319.969 366.952 316.654 365.91 312.819 375.288C308.464 385.992 317.838 391.25 325.224 393.476L325.129 394.849C320.253 396.46 316.039 396.128 312.393 394.66C310.121 393.713 308.132 392.481 306.428 390.966C304.534 391.439 302.498 391.392 300.746 390.681C299.562 390.208 298.663 389.687 297.953 389.071L298.237 387.603C299.562 387.366 302.498 385.14 306.996 374.152L320.489 341.092C324.893 330.246 324.372 326.599 323.614 325.367L324.419 324.136C325.319 324.183 326.266 324.562 327.449 325.083C329.201 325.794 330.622 327.309 331.711 328.825C333.983 328.967 336.303 329.44 338.434 330.34C342.032 331.809 345.441 334.603 347.856 339.008L346.956 340.05C339.854 336.403 329.675 333.798 325.366 344.36C321.342 354.259 324.277 355.775 349.844 366.194L365.752 372.683C387.958 381.73 393.971 384.193 401.641 374.199L403.014 374.625C403.061 376.378 402.351 379.362 401.309 381.872C399.984 385.092 397.522 388.882 394.208 390.823L394.302 390.871Z" fill="#482011"/>
<path id="hThe" d="M454.29 291.171C454.432 294.344 452.87 298.418 450.55 301.544C449.177 303.391 446.573 306.138 445.057 306.99L443.969 305.996C447.946 294.344 444.063 290.887 423.326 275.446C424.036 279.046 423.42 283.261 420.059 287.808C414.709 295.007 405.334 300.786 397.332 305.996C420.011 322.952 424.178 326.03 434.641 318.547L435.872 319.305C435.399 321.152 433.505 324.42 432.227 326.125C429.907 329.251 426.45 331.903 423.184 332.898C423.326 336.071 421.763 340.145 419.443 343.271C418.07 345.118 415.466 347.865 413.951 348.717L412.862 347.723C416.981 335.645 412.862 332.567 389.899 315.421L387.106 313.337C385.922 314.426 384.928 315.326 384.123 316.368C381.093 320.442 379.956 324.609 382.939 328.825L381.945 329.677C375.79 325.083 374.748 317.079 380.383 309.548L380.998 308.743C358.793 292.166 354.389 289.087 344.115 296.334L342.884 295.576C343.263 293.871 345.157 290.603 346.53 288.755C348.85 285.629 352.306 282.977 355.384 282.219C355.384 278.809 356.993 274.736 359.313 271.61C360.592 269.857 363.196 267.11 364.806 266.163L365.895 267.158C361.681 279.33 365.942 282.551 388.905 299.649L389.852 300.359C398.753 293.492 409.69 287.761 415.04 280.609C417.36 277.483 419.206 272.368 415.608 269.668L412.815 267.584C389.899 250.486 385.591 247.265 375.222 254.654L373.991 253.896C374.37 252.191 376.263 248.923 377.636 247.076C379.956 243.95 383.413 241.297 386.49 240.539C386.49 237.129 388.1 233.103 390.42 229.977C391.698 228.225 394.302 225.478 395.912 224.531L397.001 225.525C392.787 237.698 397.048 240.918 420.011 258.017L428.25 264.174C451.165 281.272 455.332 284.398 465.795 276.867L467.026 277.625C466.553 279.472 464.659 282.74 463.38 284.445C461.061 287.571 457.604 290.224 454.337 291.218L454.29 291.171Z" fill="#482011"/>
<path id="eThe" d="M487.432 194.597L488.853 193.839C493.067 199.144 496.475 207.338 488.995 213.305C483.929 217.379 476.022 219.747 468.967 222.02L471.761 225.525C488.332 246.318 494.203 248.639 507.554 238.029C517.26 230.309 520.527 220.694 514.988 209.564L516.124 208.664C518.633 210.179 520.575 212.169 521.711 213.637C524.694 217.379 525.451 220.647 525.783 224.815C527.251 225.478 528.766 226.709 529.57 227.704C530.375 228.746 530.849 230.025 530.991 231.351L529.76 232.156C528.482 231.493 521.853 234.951 506.134 247.454C497.517 254.275 494.392 256.596 488.805 257.022C488.569 260.716 485.207 264.126 482.84 266.021C480.33 268.01 477.726 269.573 476.022 269.999L475.217 268.768C482.272 258.348 479.383 254.748 463.191 234.382L457.415 227.136C457.083 227.42 456.657 227.562 456.421 227.751C452.822 230.64 450.786 234.619 452.633 239.261L451.212 240.018C446.904 234.572 447.188 227.325 453.106 221.736L451.828 220.173C436.535 200.944 433.268 197.06 421.763 201.607L420.769 200.565C421.668 198.907 424.367 196.255 426.829 194.265C429.528 192.087 432.937 190.145 436.156 190.903C436.44 187.35 440.181 183.656 450.218 175.652C457.225 170.063 460.776 168.026 465.416 166.7C467.926 163.811 468.825 162.153 469.441 160.164L470.766 159.501C471.145 159.737 471.713 160.211 472.329 161.016C473.655 162.721 474.365 164.758 474.649 166.937C476.259 168.026 477.49 169.115 478.815 170.821C481.23 173.899 482.461 177.736 482.603 182.567L481.325 183.04C475.406 173.71 466.553 170.963 456.278 179.156C446.904 186.64 447.472 195.213 462.197 213.779L463.286 215.153C471.003 211.411 479.762 208.711 484.497 204.922C487.527 202.507 489.374 199.191 487.29 194.739L487.432 194.597Z" fill="#482011"/>
<path id="wWag" d="M620.096 87.0347C621.47 84.6192 626.204 82.0615 629.85 81.1616C632.501 80.5459 635.579 80.2617 637.757 80.6406L638.419 82.1089C632.122 85.0928 630.087 88.3609 631.081 92.5762C631.98 96.3653 635.815 102.759 639.84 109.674L668.39 158.648L673.692 105.317C674.687 95.7496 675.586 89.8765 674.308 84.5244C673.03 79.0303 669.431 76.3306 660.388 76.9463L660.009 75.3833C661.619 74.1045 664.791 72.9204 667.159 72.3521C671.515 71.3101 676.06 71.7363 678.758 73.2046C680.132 70.7891 684.582 68.2788 687.944 67.4736C690.311 66.9053 693.388 66.6211 694.856 67.1894L695.093 68.7524C685.245 73.5835 683.588 84.8086 681.363 103.896L679.374 122.605C677.527 140.697 675.87 152.065 677.433 158.696C678.995 165.468 683.446 168.547 689.648 167.695L690.311 169.305C689.08 170.489 686.429 171.72 683.872 172.289C680.51 173.094 675.255 172.81 670.615 172.147C667.206 175.32 664.318 176.883 659.678 177.972C656.742 178.683 653.476 178.825 651.487 178.399L651.108 176.836C658.163 172.81 658.731 169.4 657.453 164.048C656.79 161.253 654.896 157.654 652.529 153.77L628.761 114.979L626.488 134.966C624.452 152.965 623.269 164.379 624.831 170.963C626.394 177.736 630.844 180.814 637.046 179.962L637.709 181.572C636.478 182.756 633.827 183.988 631.412 184.509C627.909 185.314 622.511 185.124 618.013 184.366C614.604 187.54 611.716 189.103 606.934 190.24C604.141 190.903 600.732 191.092 598.743 190.666L598.365 189.103C605.277 185.124 605.845 181.714 604.567 176.362C603.904 173.568 602.152 169.968 599.738 165.895L575.97 127.104C565.127 109.295 562.287 102.996 548.083 103.044L547.562 101.528C548.793 100.344 551.918 99.1597 554.711 98.4966C558.215 97.6915 564.607 97.6441 567.163 99.1597C568.252 96.8389 573.697 94.0918 577.627 93.1446C579.994 92.5762 582.93 92.3394 585.25 92.7183L585.77 94.2339C579.189 97.2652 577.295 100.533 578.29 104.749C579.189 108.538 582.693 114.695 586.765 121.894L615.599 170.821L621.801 103.612C615.599 94.2339 611.385 90.7764 600.827 90.729L600.306 89.2134C601.395 88.0767 604.946 86.7979 607.455 86.1822C611.243 85.2823 617.066 85.4243 620.049 86.7979L620.096 87.0347Z" fill="#482011"/>
<path id="aWag" d="M777.475 172.857C775.44 174.562 770.61 175.51 767.296 175.225C764.834 175.036 761.283 174.325 759.768 173.473V172.005C765.544 170.3 768.054 167.742 768.432 163.006C768.764 159.122 767.438 153.628 765.355 145.623C763.13 148.039 759.673 149.507 754.655 149.128C748.452 148.607 742.155 145.813 736.426 143.445C733.396 150.454 731.218 155.901 730.887 159.974C730.508 164.569 732.449 167.647 738.036 170.252L737.941 171.673C736 172.241 732.97 172.431 730.508 172.241C727.336 172.005 723.264 170.347 721.844 168.358C719.808 170.063 714.836 170.963 711.096 170.678C708.776 170.489 705.509 169.779 704.42 168.973L704.704 167.552C716.304 165.895 721.181 158.885 729.608 140.84C728.472 140.603 727.336 140.366 726.342 140.271C722.459 139.94 718.198 140.603 716.446 144.108L715.168 143.729C715.689 137.24 721.417 132.788 730.319 133.498C731.171 133.593 732.023 133.782 732.875 133.83C733.585 131.983 734.485 130.183 735.337 128.241L742.25 112.564C746.511 103.044 748.642 97.8809 748.973 93.8077C749.446 88.1714 746.038 85.2823 740.025 84.5245L739.74 82.9141C741.398 82.3457 744.617 82.0142 747.458 82.251C750.488 82.4878 755.744 83.4825 757.732 85.9927C760.241 83.8614 764.171 83.6246 767.769 83.9087C770.942 84.1456 774.635 85.0455 776.434 85.898L776.339 87.3189C769.142 88.5977 766.396 90.4449 766.065 94.0445C765.781 97.3599 767.107 102.38 768.101 106.691L774.729 134.209C781.074 159.927 783.488 169.115 794.757 174.846V176.315C793.431 176.93 790.638 177.12 788.081 176.93C784.625 176.646 779.701 174.941 777.523 172.905L777.475 172.857ZM763.982 140.745L762.94 135.866L754.655 102.286L742.06 130.846L739.788 135.866C746.369 138.424 752.903 141.882 758.537 142.308C760.573 142.45 762.609 142.071 764.029 140.697L763.982 140.745Z" fill="#482011"/>
<path id="gWag" d="M873.494 113.937C852.567 106.359 835.806 115.358 826.858 140.082C818.051 164.426 824.869 181.761 845.654 189.292C851.478 191.424 861.468 193.602 869.706 191.234L874.583 177.783C877.85 168.689 875.814 163.763 868.712 158.743L869.09 157.322C870.842 157.18 874.251 157.938 876.666 158.838C879.933 160.022 883.578 162.248 885.662 165.468C889.023 164.237 893.142 164.805 896.267 165.895C898.871 166.842 902.233 168.5 903.606 169.779L902.99 171.105C894.515 170.347 889.544 172.999 886.277 182.093L885.236 184.935C881.637 194.834 883.389 201.465 880.406 208.522L878.702 208.048C878.796 203.928 876.192 202.222 873.494 201.228C871.458 200.47 869.801 200.375 864.782 200.233C858.059 200.091 852.33 199.428 843.381 196.16C814.453 185.693 804.084 161.679 813.695 135.014C823.733 107.306 848.258 96.7916 876.098 106.88C893.237 113.085 899.155 122.131 900.292 124.547C903.085 125.257 907.867 124.831 909.335 123.362L910.613 124.12C910.755 124.641 910.613 125.352 910.329 126.157C909.335 128.857 906.163 131.272 903.132 132.93C902.99 135.014 902.564 137.05 901.854 139.087C900.528 142.734 898.019 146.286 893.995 149.318L892.906 148.465C898.019 131.746 889.402 119.526 873.636 113.842L873.494 113.937Z" fill="#482011"/>
<path id="nWag" d="M947.117 261.521C950.289 257.211 950.81 249.491 951.378 243.855L956.918 167.41L933.671 198.576C920.366 216.574 916.058 222.399 923.444 232.346L922.686 233.577C920.982 233.198 918.283 231.73 916.437 230.356C913.548 228.225 911.371 226.046 910.992 222.399C907.251 223.062 904.458 221.499 901.901 219.605C899.913 218.137 897.877 216.053 897.025 214.537L898.019 213.448C909.998 217.663 914.117 212.074 927.563 193.934L936.748 181.525C952.657 160.022 956.776 154.433 949.106 144.439L949.863 143.208C951.568 143.587 954.172 144.96 956.113 146.428C958.433 148.133 960.753 150.596 961.321 154.243C964.162 153.296 966.008 153.77 967.997 155.191C969.985 156.659 970.411 158.98 969.749 166.937L964.114 243.334L985.609 214.3C999.529 195.497 1004.07 189.34 996.31 179.441L997.067 178.209C998.772 178.588 1001.38 179.962 1003.46 181.477C1005.78 183.182 1008.24 185.74 1008.9 189.434C1012.88 189.15 1016.15 191.045 1019.08 193.176C1020.5 194.218 1022.3 195.923 1022.92 197.439L1021.92 198.528C1010.09 193.887 1005.59 199.949 991.575 218.847L964.682 255.222C959.143 255.412 955.308 255.98 948.964 262.848L947.212 261.569L947.117 261.521Z" fill="#482011"/>
<path id="eWag" d="M1051.61 287.713L1052.37 289.134C1047.06 293.397 1038.87 296.807 1032.91 289.371C1028.84 284.303 1026.42 276.441 1024.1 269.384L1020.6 272.178C999.861 288.803 997.541 294.723 1008.24 308.032C1016.01 317.742 1025.62 320.962 1036.7 315.374L1037.6 316.51C1036.08 319.021 1034.14 320.962 1032.67 322.147C1028.93 325.13 1025.66 325.888 1021.55 326.267C1020.88 327.735 1019.7 329.251 1018.66 330.056C1017.66 330.861 1016.34 331.335 1015.01 331.524L1014.21 330.293C1014.87 329.014 1011.37 322.383 998.819 306.706C991.954 298.133 989.634 295.007 989.208 289.418C985.515 289.229 982.106 285.866 980.212 283.498C978.223 281.035 976.661 278.383 976.235 276.678L977.466 275.872C987.882 282.882 991.48 279.993 1011.79 263.747L1018.99 257.969C1018.7 257.638 1018.56 257.211 1018.37 256.975C1015.48 253.375 1011.51 251.386 1006.87 253.233L1006.11 251.812C1011.51 247.454 1018.8 247.739 1024.39 253.612L1025.95 252.333C1045.12 236.987 1048.96 233.719 1044.37 222.21L1045.41 221.168C1047.06 222.068 1049.76 224.72 1051.75 227.23C1053.93 229.93 1055.92 233.34 1055.16 236.561C1058.71 236.845 1062.45 240.539 1070.45 250.58C1076.04 257.59 1078.12 261.095 1079.45 265.737C1082.34 268.2 1083.99 269.1 1085.98 269.763L1086.65 271.089C1086.41 271.468 1085.94 272.036 1085.13 272.652C1083.43 274.025 1081.39 274.688 1079.21 274.973C1078.12 276.583 1077.04 277.814 1075.38 279.188C1072.35 281.651 1068.51 282.835 1063.64 283.024L1063.16 281.746C1072.44 275.778 1075.19 266.921 1066.95 256.69C1059.47 247.312 1050.85 247.928 1032.39 262.753L1031.01 263.842C1034.8 271.562 1037.5 280.277 1041.34 285.014C1043.8 288.045 1047.06 289.845 1051.52 287.761L1051.61 287.713Z" fill="#482011"/>
<path id="rWag" d="M1036.13 356.817C1032.29 355.064 1029.78 350.659 1028.55 347.912C1027.37 345.307 1026.66 342.75 1026.71 341.139L1028.08 340.666C1036.03 350.375 1043.28 347.06 1065.06 337.019L1076.75 331.667C1101.94 320.063 1107.72 317.41 1106.06 304.812L1107.34 304.101C1108.62 305.096 1110.13 307.417 1111.46 310.306C1112.69 312.911 1114.11 317.505 1113.11 321.483C1116.66 323.046 1122.06 329.914 1126.13 338.724C1131.91 351.322 1133.19 365.531 1119.27 371.925C1106.53 377.799 1090.77 371.168 1080.49 356.343C1088.59 379.504 1057.34 400.059 1064.2 415.074C1064.91 416.636 1066.1 418.152 1067.76 419.336L1066.86 420.852C1062.83 419.999 1058.85 416.921 1056.53 411.9C1045.83 388.645 1081.11 370.22 1072.3 346.918L1067.19 349.286C1047.78 358.237 1041.1 361.742 1043.32 373.773L1042.09 374.53C1040.82 373.536 1039.35 371.357 1038.02 368.468C1036.79 365.863 1034.9 360.985 1036.22 356.911L1036.13 356.817ZM1120.36 341.139C1116.33 332.33 1109.56 329.725 1095.22 336.308L1078.55 343.981C1089.53 361.979 1102.89 364.774 1113.11 360.037C1121.64 356.106 1124 349.144 1120.31 341.139H1120.36Z" fill="#482011"/>
</g>
<g id="freeInst">
<path id="f1" d="M333.699 601.827V602.585C329.438 603.201 325.982 601.591 325.413 597.375C324.987 594.202 326.029 588.85 326.692 584.303L318.312 585.487C307.99 586.955 304.25 587.476 304.06 594.344L303.255 594.533C302.687 593.776 302.261 592.307 302.072 590.934C301.835 589.181 301.551 587.097 303.113 585.155C301.22 583.64 300.793 581.793 300.557 579.993C300.367 578.619 300.367 577.104 300.699 576.204H301.551C303.539 582.74 307.375 582.172 317.696 580.703L327.165 579.377C327.165 578.856 327.165 578.382 327.165 578.004C326.881 575.967 325.508 573.788 322.336 573.172V572.32C326.218 571.799 329.533 574.214 330.527 578.903L336.256 578.098C347.098 576.583 351.407 575.967 351.265 569.147L352.069 568.957C352.638 569.857 353.158 571.799 353.395 573.362C353.632 574.878 353.442 576.488 352.259 578.193C353.916 579.519 354.958 584.208 355.952 591.123C357.277 600.406 358.13 602.633 358.603 603.201V604.053C358.272 604.148 357.893 604.29 357.514 604.338C356.473 604.48 355.336 604.101 354.437 603.627C353.348 604.148 352.259 604.48 351.122 604.622C348.708 604.953 346.341 604.432 343.736 603.059L343.878 602.254C345.204 602.443 346.435 602.49 347.572 602.348C352.022 601.733 354.342 598.086 353.348 591.171C352.164 582.74 348.566 581.177 336.966 582.787L330.858 583.64C330.716 588.518 329.533 594.486 330.006 597.801C330.243 599.554 331.048 601.354 333.794 601.733L333.699 601.827Z" fill="#482011"/>
<path id="r" d="M311.872 635.219C310.026 633.892 309.363 632.187 308.984 630.766C308.606 629.345 308.511 627.972 308.653 627.167L309.41 627.025C311.872 632.756 315.897 631.714 326.36 628.967L336.871 626.219C350.696 622.62 353.348 621.909 353.111 615.61L353.821 615.326C354.389 615.989 354.958 617.22 355.336 618.641C355.715 620.015 355.952 621.862 355.005 623.899C356.709 624.941 358.793 629.298 359.882 633.561C361.539 639.955 360.592 646.87 353.395 648.764C346.767 650.517 338.907 646.586 334.457 637.303C335.593 649.759 318.406 658.237 320.537 666.478C320.821 667.52 321.389 668.61 322.431 669.462L321.863 670.078C320.111 669.415 318.027 667.947 317.175 664.868C314.287 653.738 333.936 645.307 331.805 632.519L326.929 633.798C316.986 636.403 313.103 637.634 313.719 643.602L313.009 643.886C312.441 643.223 311.872 641.991 311.494 640.571C311.115 639.102 310.831 637.113 311.825 635.219H311.872ZM357.372 634.271C355.952 628.824 352.353 627.167 345.015 629.109L334.693 631.808C339.239 642.276 345.678 645.544 351.691 643.933C356.473 642.702 358.603 639.055 357.325 634.271H357.372Z" fill="#482011"/>
<path id="e1" d="M359.55 697.122L359.74 697.786C356.189 699.206 352.874 698.638 351.359 694.802C350.27 692.055 350.034 687.318 349.56 683.292L344.257 685.376C332.752 689.971 330.527 692.481 333.794 700.58C336.54 707.495 340.091 710.526 347.24 709.153L347.477 709.769C346.341 710.858 344.968 711.521 344.257 711.758C341.937 712.705 340.517 712.421 338.576 711.9C337.96 712.468 337.155 713.131 336.54 713.368C335.924 713.605 335.262 713.652 334.457 713.51L334.267 712.752C334.788 712.231 334.031 708.206 329.627 697.17C327.97 693.002 327.355 691.297 328.254 689.023C326.171 688.076 325.319 686.371 324.845 685.139C324.277 683.671 323.946 682.298 324.04 681.445L324.798 681.256C328.396 686.466 330.669 685.566 342.458 680.877L348.803 678.367C348.613 677.94 348.566 677.561 348.471 677.277C347.761 675.43 346.104 673.82 343.216 673.962L343.074 673.204C346.388 671.878 349.844 673.299 351.691 677.23L354.721 676.046C365.184 671.878 367.741 670.694 366.699 664.631L367.362 664.3C368.025 664.915 368.877 666.431 369.446 667.899C370.014 669.32 370.534 671.309 369.54 672.683C371.197 673.014 372.239 674.909 374.89 681.682C376.595 685.945 377.021 687.887 376.926 690.302C377.636 691.913 378.441 692.481 379.53 693.191L379.672 693.949C379.672 693.949 379.151 694.328 378.725 694.47C377.589 694.896 376.453 694.944 375.316 694.754C374.559 695.37 373.943 695.796 373.091 696.128C371.197 696.886 369.256 696.838 366.936 696.128V695.417C372.854 693.949 375.411 690.065 372.807 683.482C370.677 678.13 366.747 676.425 356.425 680.498L353.016 681.824C353.821 686.182 354.058 691.486 355.194 694.281C355.81 695.844 356.946 697.265 359.408 697.028L359.55 697.122Z" fill="#482011"/>
<path id="e2" d="M381.661 740.744L381.945 741.36C378.631 743.207 375.269 743.065 373.233 739.513C371.813 736.908 370.961 732.266 369.966 728.335L364.995 731.129C354.153 737.145 352.306 739.939 356.567 747.564C360.213 754.053 364.095 756.611 371.008 754.29L371.339 754.906C370.392 756.137 369.067 756.942 368.404 757.321C366.226 758.553 364.758 758.458 362.77 758.174C362.249 758.79 361.539 759.547 360.923 759.879C360.308 760.21 359.692 760.305 358.887 760.305L358.603 759.595C359.077 758.979 357.751 755.095 351.975 744.723C349.797 740.791 348.992 739.181 349.56 736.813C347.335 736.15 346.293 734.54 345.678 733.403C344.92 732.029 344.447 730.703 344.399 729.851L345.109 729.566C349.371 734.255 351.501 733.071 362.58 726.867L368.546 723.551C368.309 723.172 368.214 722.793 368.072 722.509C367.125 720.804 365.279 719.383 362.438 719.904L362.201 719.146C365.326 717.394 368.925 718.389 371.292 722.036L374.133 720.425C383.981 714.931 386.348 713.463 384.549 707.59L385.164 707.164C385.922 707.732 386.916 709.058 387.674 710.479C388.431 711.805 389.189 713.7 388.384 715.215C390.088 715.31 391.319 717.062 394.87 723.457C397.096 727.435 397.806 729.33 397.995 731.745C398.895 733.213 399.794 733.687 400.978 734.255L401.215 735.013C401.215 735.013 400.741 735.439 400.363 735.676C399.321 736.245 398.185 736.434 397.048 736.387C396.385 737.097 395.817 737.618 395.012 738.044C393.213 739.039 391.319 739.228 388.905 738.802L388.763 738.092C394.492 735.866 396.528 731.698 393.071 725.493C390.278 720.425 386.111 719.241 376.405 724.641L373.233 726.393C374.606 730.608 375.506 735.818 377.021 738.471C377.826 739.939 379.151 741.218 381.519 740.649L381.661 740.744Z" fill="#482011"/>
<path id="i1" d="M398.469 807.811C396.717 807.621 395.012 806.627 393.687 805.111C392.929 804.258 391.746 802.553 391.509 801.559L392.172 801.085C397.853 805.111 399.084 804.022 411.678 792.986L419.254 786.308C431.8 775.272 433.126 774.088 429.859 767.978L430.427 767.362C431.374 767.741 432.889 769.162 433.647 770.015C434.973 771.483 435.73 773.33 435.683 775.083C437.529 775.367 439.329 776.456 440.512 777.83C441.222 778.635 442.453 780.387 442.737 781.429L442.027 781.856C436.346 777.83 435.067 778.966 422.473 790.002L414.898 796.68C402.351 807.716 401.073 808.853 404.34 814.963L403.819 815.626C402.825 815.199 401.262 813.731 400.552 812.926C399.368 811.552 398.516 809.658 398.469 807.763V807.811Z" fill="#482011"/>
<path id="n1" d="M439.991 855.032C441.743 853.043 442.501 849.348 442.974 846.507L450.171 805.016L433.221 824.151C426.971 831.208 424.699 833.766 428.297 838.692L427.871 839.307C427.066 839.071 425.74 838.265 424.888 837.508C423.799 836.56 422.663 835.424 422.568 833.245C420.39 833.434 419.159 832.487 418.117 831.54C417.218 830.735 416.271 829.598 415.939 828.793L416.508 828.272C422.047 831.35 424.178 828.887 430.475 821.783L439.281 811.837C448.088 801.89 450.265 799.427 446.43 794.502L446.857 793.886C447.661 794.123 448.892 794.881 449.839 795.686C450.928 796.633 451.875 797.628 451.97 799.806C453.532 799.191 454.101 799.475 454.763 800.09C455.521 800.754 455.568 802.127 455.095 804.969L447.756 846.933L463.049 829.693C469.914 821.972 472.518 818.988 468.588 814.157L469.015 813.542C469.819 813.778 471.05 814.536 472.045 815.389C473.086 816.289 474.27 817.568 474.412 819.699C476.685 819.699 478.152 820.883 479.383 821.972C479.999 822.541 480.804 823.441 481.041 824.246L480.472 824.767C475.17 821.357 472.566 824.293 465.653 832.061L447.993 852.001C445.626 852.238 443.968 852.616 440.702 855.79L439.897 855.079L439.991 855.032Z" fill="#482011"/>
<path id="s1" d="M467.736 870.378C466.458 869.667 463.949 869.573 462.812 870.378L462.292 869.809C462.292 869.525 462.434 869.194 462.718 868.815C463.57 867.583 465.511 866.778 467.358 866.399C467.642 865.31 468.115 864.363 468.873 863.273C469.962 861.71 471.477 860.053 473.749 859.058L474.175 859.626C469.109 866.399 471.619 872.746 477.111 876.582C482.792 880.561 487.574 879.14 490.699 874.64C498.701 863.131 477.916 852.948 486.627 840.397C491.173 833.861 497.991 834.05 504.288 838.455C507.602 840.776 509.78 843.76 510.111 845.37C511.484 846.033 514.041 846.08 515.13 845.37L515.745 845.986C515.745 846.27 515.603 846.601 515.367 846.933C514.467 848.259 512.384 848.922 510.632 849.348C510.253 850.39 509.732 851.432 509.117 852.285C507.981 853.895 506.608 855.079 504.43 855.979L504.004 855.411C508.833 849.112 506.608 843.949 502.488 841.107C497.801 837.839 493.445 838.407 490.699 842.339C484.355 851.432 504.95 862.184 494.771 876.819C489.705 884.113 482.461 884.255 475.264 879.282C470.293 875.825 467.926 871.941 467.736 870.425V870.378Z" fill="#482011"/>
<path id="t1" d="M519.06 903.153C516.834 903.579 515.177 902.964 513.709 902.159C512.621 901.59 511.484 900.69 511.011 899.98L511.437 899.364C517.308 901.448 519.012 898.275 524.362 888.471L529.902 878.24C537.004 865.215 537.572 863.794 532.695 861.142C527.819 858.49 525.025 861.142 523.226 864.41C522.847 865.168 522.516 865.926 522.184 866.636L521.474 866.494C521.095 864.126 521.616 862.231 522.469 860.621C523.131 859.437 523.984 858.347 524.931 857.353C524.741 856.406 524.883 855.411 525.309 854.606C525.641 853.99 525.972 853.564 526.256 853.232L527.014 853.469C527.108 854.227 528.055 855.837 533.548 858.821L548.698 867.062C554.096 869.999 556.037 869.951 556.747 869.62L557.363 870.094C557.268 870.567 557.031 871.041 556.7 871.657C556.274 872.462 555.422 873.03 554.617 873.456C554.333 874.783 553.954 876.109 553.291 877.34C552.439 878.95 551.066 880.371 548.935 881.366L548.462 880.845C548.888 880.229 549.361 879.519 549.74 878.856C551.539 875.493 552.249 871.704 547.278 869.052C542.117 866.257 541.36 867.394 534.21 880.561L528.671 890.791C523.321 900.596 521.616 903.769 526.588 907.558L526.304 908.268C525.451 908.268 524.126 907.795 522.989 907.179C521.522 906.374 520.007 905.332 519.202 903.201L519.06 903.153Z" fill="#482011"/>
<path id="i2" d="M557.505 921.672C555.942 922.241 554.049 922.051 552.439 921.341C551.397 920.914 549.787 919.967 549.172 919.304L549.551 918.641C555.8 919.636 556.511 918.025 562.381 904.148L565.648 896.38C571.519 882.503 572.229 880.845 567.163 877.009L567.4 876.298C568.3 876.298 570.099 876.772 571.141 877.198C572.75 877.861 574.218 879.093 574.881 880.608C576.538 880.04 578.479 880.324 579.994 880.987C580.894 881.366 582.646 882.361 583.261 883.024L582.882 883.687C576.633 882.692 575.923 884.35 570.052 898.227L566.785 905.995C560.914 919.872 560.251 921.483 565.317 925.272L565.08 925.982C564.181 925.982 562.239 925.461 561.34 925.082C559.777 924.419 558.262 923.188 557.505 921.625V921.672Z" fill="#482011"/>
<path id="t2" d="M597.276 936.26C595.192 937.113 593.441 936.829 591.831 936.308C590.647 935.929 589.369 935.313 588.753 934.697L589.037 933.987C595.192 934.887 596.281 931.476 599.596 920.772L603.052 909.642C607.455 895.48 607.786 893.965 602.484 892.307C597.181 890.649 594.956 893.775 593.819 897.327C593.583 898.133 593.393 898.938 593.251 899.696H592.541C591.736 897.47 591.878 895.528 592.399 893.775C592.825 892.449 593.441 891.218 594.198 890.128C593.867 889.228 593.772 888.234 594.009 887.381C594.198 886.718 594.435 886.244 594.672 885.818L595.429 885.913C595.666 886.623 596.897 888.044 602.862 889.891L619.339 895.054C625.21 896.901 627.104 896.428 627.719 896.001L628.382 896.38C628.382 896.854 628.24 897.375 628.051 898.038C627.767 898.891 627.056 899.648 626.346 900.217C626.346 901.543 626.204 902.964 625.778 904.29C625.257 906.042 624.168 907.7 622.274 909.121L621.706 908.695C621.99 907.984 622.322 907.226 622.559 906.469C623.695 902.822 623.6 898.985 618.25 897.327C612.663 895.575 612.095 896.854 607.644 911.158L604.188 922.288C600.874 932.945 599.785 936.402 605.372 939.149L605.23 939.907C604.378 940.049 603.005 939.86 601.774 939.481C600.164 938.96 598.507 938.202 597.276 936.308V936.26Z" fill="#482011"/>
<path id="u" d="M670.662 922.904C672.461 912.626 673.172 908.742 667.253 906.705V905.948C668.106 905.711 669.573 905.711 670.946 905.948C672.225 906.184 673.55 906.611 674.781 908.316C676.628 907.179 678.001 907.179 679.421 907.416C680.747 907.653 682.025 908.126 682.688 908.6L682.499 909.358C676.249 909.263 675.586 913.147 673.787 923.425L671.23 937.965C669.431 948.148 662.377 954.164 651.629 952.269C642.397 950.659 636.431 944.17 638.562 932.187L641.024 918.262C642.917 907.558 643.628 903.437 637.899 901.495V900.738C638.751 900.501 640.171 900.501 641.876 900.832C643.201 901.069 644.811 901.732 646.232 903.295C647.747 902.159 649.593 902.206 651.25 902.49C652.955 902.774 654.186 903.248 654.896 903.769L654.707 904.527C648.552 904.385 647.699 908.458 645.805 919.162L643.486 932.329C641.639 942.796 646.232 947.817 653.002 949.001C661.619 950.517 666.969 944.596 668.248 937.492L670.804 922.951L670.662 922.904Z" fill="#482011"/>
<path id="t3" d="M707.687 956.011C705.841 957.337 704.089 957.479 702.432 957.384C701.201 957.29 699.78 957.005 699.07 956.579L699.212 955.821C705.415 955.206 705.651 951.606 706.267 940.476L706.93 928.872C707.782 914.047 707.735 912.531 702.195 912.2C696.656 911.868 695.235 915.468 694.998 919.162C694.951 920.015 694.998 920.82 694.998 921.625L694.288 921.814C692.962 919.825 692.631 917.883 692.726 916.083C692.82 914.71 693.105 913.384 693.578 912.105C693.01 911.3 692.678 910.352 692.726 909.452C692.726 908.789 692.868 908.221 692.962 907.795L693.72 907.7C694.146 908.316 695.661 909.405 701.911 909.784L719.145 910.779C725.3 911.158 727.004 910.258 727.525 909.689L728.283 909.879C728.425 910.352 728.377 910.873 728.33 911.536C728.283 912.436 727.762 913.336 727.194 914.047C727.478 915.373 727.715 916.746 727.62 918.12C727.525 919.92 726.862 921.814 725.395 923.614L724.732 923.33C724.874 922.572 724.969 921.767 725.016 920.962C725.253 917.173 724.258 913.431 718.624 913.099C712.801 912.768 712.564 914.141 711.664 929.061L711.001 940.665C710.339 951.843 710.149 955.395 716.21 956.769V957.526C715.452 957.858 714.079 958 712.801 957.953C711.143 957.858 709.344 957.526 707.64 955.963L707.687 956.011Z" fill="#482011"/>
<path id="e3" d="M768.527 927.498H769.237C769.663 931.287 768.243 934.366 764.171 934.792C761.236 935.123 756.596 934.129 752.619 933.513L753.281 939.197C754.702 951.511 756.548 954.306 765.213 953.311C772.599 952.458 776.434 949.806 777.002 942.56L777.665 942.465C778.422 943.838 778.659 945.354 778.754 946.112C779.038 948.622 778.422 949.901 777.381 951.606C777.759 952.316 778.186 953.264 778.28 953.974C778.375 954.685 778.186 955.3 777.902 956.011H777.144C776.765 955.395 772.693 955.063 760.904 956.437C756.454 956.958 754.607 957.1 752.713 955.632C751.246 957.432 749.352 957.763 748.073 957.905C746.511 958.095 745.091 958 744.286 957.716V956.958C750.251 954.827 749.967 952.411 748.5 939.765L747.742 932.945C747.268 932.992 746.89 932.945 746.606 932.992C744.664 933.229 742.629 934.366 742.013 937.207H741.256C740.829 933.608 743.102 930.671 747.363 929.866L746.984 926.598C745.706 915.42 745.233 912.626 739.125 912.057L738.983 911.3C739.788 910.826 741.398 910.4 743.007 910.21C744.522 910.021 746.606 910.021 747.647 911.347C748.405 909.831 750.488 909.358 757.732 908.505C762.277 907.984 764.266 908.079 766.586 908.789C768.29 908.505 769.095 907.89 770.042 906.99H770.8C770.894 907.274 771.036 907.653 771.084 908.079C771.226 909.31 770.989 910.4 770.468 911.442C770.894 912.294 771.131 913.052 771.226 913.952C771.462 915.989 770.894 917.836 769.616 919.873L768.906 919.73C769.048 913.573 765.97 910.116 758.963 910.921C753.234 911.584 750.535 914.947 751.814 925.982L752.24 929.629C756.643 929.961 761.804 931.145 764.834 930.766C766.491 930.577 768.196 929.866 768.574 927.403L768.527 927.498Z" fill="#482011"/>
<path id="o" d="M852.519 936.876C839.12 941.375 826.005 934.792 821.366 921.009C816.726 907.179 823.165 893.917 836.611 889.418C849.963 884.918 863.172 891.597 867.812 905.427C872.452 919.209 865.871 932.424 852.519 936.876ZM837.605 892.449C826.148 896.286 822.597 907.037 826.81 919.494C830.456 930.292 839.925 937.728 851.525 933.845C861.278 930.577 867.055 920.583 862.651 907.416C858.485 895.007 848.779 888.707 837.653 892.449H837.605Z" fill="#482011"/>
<path id="f2" d="M904.6 884.634L905.263 884.397C906.92 887.807 906.778 891.549 903.085 893.302C900.434 894.58 895.652 895.054 891.627 895.67L894.468 901.543C898.871 910.589 900.386 913.715 906.447 912.152L906.825 912.815C906.305 913.478 905.121 914.331 903.937 914.899C902.422 915.61 900.623 916.415 898.54 915.657C897.782 917.741 896.267 918.641 894.705 919.399C893.521 919.967 892.148 920.393 891.296 920.393L891.012 919.683C896.078 915.989 894.515 912.768 890.112 903.722L886.703 896.759C886.277 896.949 885.898 897.043 885.662 897.185C883.863 898.038 882.347 899.79 882.726 902.68L881.969 902.869C880.406 899.648 881.59 896.143 885.33 893.965L883.484 890.223C878.939 880.845 877.187 877.293 871.221 879.093L870.842 878.43C871.41 877.719 872.926 876.772 874.204 876.109C875.719 875.398 877.187 875.067 879.033 875.635C879.791 873.835 883.294 871.704 889.307 868.767C896.835 865.12 898.54 863.794 898.871 863.179L899.629 862.989C899.818 863.226 900.008 863.463 900.197 863.794C900.576 864.599 900.623 865.689 900.481 866.636C901.191 867.394 901.807 868.294 902.233 869.194C903.18 871.183 903.464 873.409 902.943 876.061L902.233 876.156C902.043 875.067 901.759 874.119 901.333 873.267C899.629 869.715 895.936 868.436 890.207 871.23C883.294 874.593 883.01 878.193 887.84 888.092L889.828 892.212C894.089 891.075 899.392 890.46 902.091 889.134C903.606 888.423 904.932 887.144 904.506 884.729L904.6 884.634Z" fill="#482011"/>
<path id="s2" d="M963.452 877.861C962.268 878.95 961.321 881.508 961.794 883.024L961.037 883.403C960.8 883.308 960.421 882.976 960.185 882.645C959.143 881.224 958.954 878.998 959.238 876.914C958.149 876.203 957.344 875.398 956.492 874.214C955.261 872.556 954.077 870.52 953.698 867.82L954.503 867.631C959.901 875.493 967.523 875.019 973.489 870.567C979.644 865.973 979.833 860.337 976.046 855.269C966.482 842.481 948.822 860.905 938.642 847.217C933.434 840.255 935.896 833.245 942.572 828.224C946.028 825.619 949.911 824.435 951.804 824.672C952.988 823.488 953.84 820.788 953.509 819.415L954.314 818.988C954.55 819.083 954.882 819.415 955.119 819.699C956.208 821.167 956.208 823.535 956.066 825.525C957.06 826.33 957.912 827.277 958.622 828.177C959.901 829.882 960.658 831.682 960.848 834.192L960.09 834.476C955.261 826.993 948.964 827.609 944.513 830.924C939.4 834.76 938.453 839.639 941.767 844.044C949.342 854.179 967.618 836.229 979.455 852.095C984.947 859.484 983.053 867.441 975.43 873.172C970.08 877.198 965.203 878.24 963.499 877.909L963.452 877.861Z" fill="#482011"/>
<path id="c1" d="M986.462 832.771C976.046 822.304 974.294 809.279 986.036 797.58C992.759 790.902 997.588 790.097 1000.05 789.86C1001.19 788.534 1001.94 786.26 1001.75 785.076L1002.42 784.65C1002.7 784.697 1002.99 784.934 1003.32 785.266C1004.41 786.355 1004.83 788.392 1004.78 790.334C1006.02 791.044 1007.29 791.802 1008.34 792.797C1009.42 793.886 1010.28 795.259 1010.7 797.107L1010.04 797.438C1003.22 790.997 995.41 792.56 988.308 799.617C979.549 808.284 980.023 818.799 990.344 829.219C998.346 837.271 1008.53 841.581 1018.8 831.398C1024.86 825.383 1027.27 817.473 1022.16 811.552L1022.49 810.889C1024.24 811.505 1025.62 812.405 1026.66 813.494C1027.7 814.584 1028.6 815.673 1029.22 816.857C1031.11 816.905 1033.15 817.378 1034.23 818.42C1034.57 818.752 1034.75 819.083 1034.75 819.367L1034.38 819.936C1033.05 819.462 1030.21 820.315 1028.93 821.357C1028.32 823.677 1025.19 829.266 1020.93 833.482C1008.86 845.512 996.168 842.433 986.462 832.676V832.771Z" fill="#482011"/>
<path id="i3" d="M1049.67 797.107C1049.81 798.764 1049.05 800.517 1047.96 801.89C1047.25 802.79 1045.93 804.069 1045.08 804.448L1044.56 803.927C1047.25 798.196 1045.88 797.059 1034.19 787.587L1027.65 782.282C1015.96 772.809 1014.54 771.625 1009.47 775.462L1008.86 775.035C1009.09 774.135 1010.04 772.572 1010.8 771.72C1011.89 770.346 1013.45 769.257 1015.11 769.067C1015.01 767.362 1015.82 765.515 1016.86 764.236C1017.47 763.479 1018.89 762.058 1019.75 761.679L1020.27 762.2C1017.57 767.931 1018.99 769.115 1030.68 778.588L1037.22 783.892C1048.91 793.365 1050.28 794.502 1055.35 790.665L1055.97 791.091C1055.73 791.991 1054.69 793.649 1054.02 794.407C1052.98 795.686 1051.37 796.87 1049.67 797.154V797.107Z" fill="#482011"/>
<path id="e4" d="M1058.85 739.513L1059.28 738.992C1062.5 741.028 1064.02 744.06 1061.79 747.517C1060.18 750.027 1056.53 753.011 1053.55 755.711L1058.38 758.742C1068.84 765.373 1072.16 765.657 1076.85 758.269C1080.82 751.969 1081.15 747.328 1075.85 742.354L1076.23 741.786C1077.79 742.023 1079.12 742.781 1079.73 743.207C1081.86 744.533 1082.48 745.859 1083.19 747.707C1084 747.849 1084.99 748.133 1085.56 748.512C1086.13 748.891 1086.5 749.412 1086.88 750.075L1086.41 750.69C1085.65 750.596 1082.86 753.58 1076.51 763.621C1074.1 767.41 1073.06 768.925 1070.74 769.494C1071.21 771.767 1070.31 773.472 1069.6 774.562C1068.75 775.888 1067.8 776.93 1067.09 777.403L1066.48 776.93C1068.56 770.962 1066.48 769.636 1055.78 762.863L1050 759.216C1049.76 759.595 1049.48 759.879 1049.34 760.116C1048.3 761.773 1047.92 764.094 1049.72 766.32L1049.2 766.889C1046.17 764.994 1045.31 761.347 1047.4 757.558L1044.65 755.806C1035.13 749.791 1032.67 748.417 1028.36 752.774L1027.7 752.443C1027.84 751.543 1028.55 749.98 1029.4 748.654C1030.21 747.375 1031.49 745.765 1033.24 745.765C1032.53 744.202 1033.48 742.307 1037.36 736.15C1039.82 732.313 1041.1 730.798 1043.14 729.472C1043.99 727.956 1043.99 726.961 1043.94 725.635L1044.46 725.067C1044.46 725.067 1045.08 725.256 1045.46 725.493C1046.5 726.156 1047.16 727.056 1047.68 728.098C1048.63 728.335 1049.34 728.619 1050.1 729.093C1051.85 730.182 1052.89 731.792 1053.69 734.066L1053.13 734.54C1048.44 730.561 1043.8 730.798 1040.01 736.766C1036.93 741.644 1037.88 745.859 1047.25 751.78L1050.33 753.722C1053.36 750.501 1057.53 747.186 1059.14 744.628C1060.04 743.207 1060.51 741.455 1058.9 739.607L1058.85 739.513Z" fill="#482011"/>
<path id="n2" d="M1112.31 700.959C1109.89 699.87 1106.11 700.296 1103.26 700.722L1061.55 706.5L1084.89 716.826C1093.51 720.662 1096.64 722.036 1100.23 717.11L1100.94 717.347C1100.94 718.199 1100.57 719.667 1100.14 720.709C1099.57 722.036 1098.86 723.456 1096.78 724.214C1097.63 726.251 1097.06 727.672 1096.49 728.998C1096.02 730.087 1095.22 731.319 1094.55 731.887L1093.89 731.508C1095.12 725.304 1092.14 723.977 1083.43 720.141L1071.26 714.742C1059.09 709.342 1056.11 708.016 1052.56 713.226L1051.85 712.989C1051.85 712.137 1052.18 710.716 1052.65 709.626C1053.22 708.3 1053.84 707.069 1055.92 706.358C1054.83 705.032 1054.92 704.416 1055.3 703.611C1055.68 702.711 1057.01 702.19 1059.85 701.811L1102.08 696.033L1081.01 686.702C1071.54 682.535 1067.94 680.924 1064.54 686.134L1063.83 685.897C1063.83 685.045 1064.16 683.624 1064.68 682.44C1065.25 681.208 1066.1 679.645 1068.09 678.888C1067.38 676.756 1068.09 674.956 1068.75 673.441C1069.08 672.683 1069.7 671.641 1070.41 671.167L1071.07 671.546C1069.46 677.656 1073.01 679.219 1082.53 683.434L1106.86 694.186C1107.81 696.365 1108.66 697.833 1112.69 700.012L1112.26 701.006L1112.31 700.959Z" fill="#482011"/>
<path id="c2" d="M1096.59 667.236C1082.39 663.305 1074.38 652.838 1078.83 636.876C1081.39 627.735 1085.13 624.656 1087.21 623.236C1087.55 621.53 1087.07 619.162 1086.32 618.262L1086.65 617.552C1086.88 617.457 1087.31 617.505 1087.74 617.599C1089.2 618.026 1090.58 619.589 1091.52 621.246C1092.94 621.246 1094.46 621.246 1095.83 621.673C1097.3 622.099 1098.72 622.857 1100 624.278L1099.57 624.893C1090.48 622.667 1084.47 627.877 1081.77 637.539C1078.46 649.428 1084.04 658.284 1098.2 662.216C1109.14 665.247 1120.12 663.968 1124 650.043C1126.28 641.849 1124.48 633.75 1117.09 631.145V630.435C1118.89 630.056 1120.5 630.198 1121.97 630.624C1123.43 631.051 1124.71 631.524 1125.85 632.235C1127.51 631.335 1129.49 630.719 1130.96 631.145C1131.39 631.287 1131.77 631.429 1131.91 631.714V632.424C1130.44 632.661 1128.45 634.792 1127.84 636.355C1128.45 638.676 1128.5 645.07 1126.89 650.848C1122.35 667.284 1109.8 670.883 1096.54 667.189L1096.59 667.236Z" fill="#482011"/>
<path id="e5" d="M1111.08 581.84L1111.27 581.177C1115.01 581.698 1117.66 583.877 1117.04 587.95C1116.62 590.886 1114.49 595.102 1112.88 598.796L1118.51 599.601C1130.77 601.354 1133.95 600.312 1135.18 591.644C1136.22 584.255 1134.66 579.898 1127.74 577.53L1127.84 576.867C1129.35 576.488 1130.87 576.63 1131.63 576.725C1134.09 577.104 1135.22 578.004 1136.6 579.424C1137.4 579.235 1138.4 579.093 1139.11 579.188C1139.77 579.282 1140.34 579.614 1140.95 580.088L1140.76 580.845C1140.05 581.035 1138.73 584.919 1137.02 596.665C1136.36 601.117 1136.03 602.917 1134.13 604.385C1135.46 606.279 1135.37 608.174 1135.18 609.453C1134.94 611.016 1134.51 612.342 1134.04 613.052L1133.28 612.863C1132.71 606.564 1130.35 606.232 1117.75 604.385L1110.98 603.39C1110.94 603.864 1110.79 604.195 1110.75 604.527C1110.46 606.469 1111.08 608.742 1113.63 610.021L1113.4 610.732C1109.85 610.211 1107.57 607.274 1107.9 602.964L1104.69 602.49C1093.56 600.88 1090.72 600.643 1088.59 606.374H1087.83C1087.59 605.474 1087.59 603.769 1087.83 602.206C1088.07 600.691 1088.59 598.701 1090.15 597.991C1088.87 596.902 1088.92 594.723 1089.96 587.524C1090.62 583.024 1091.19 581.082 1092.47 579.046C1092.66 577.293 1092.23 576.393 1091.62 575.256L1091.85 574.546C1092.09 574.546 1092.47 574.499 1092.94 574.546C1094.13 574.735 1095.17 575.256 1096.02 576.014C1096.97 575.825 1097.73 575.825 1098.63 575.92C1100.66 576.204 1102.27 577.198 1103.93 578.998L1103.6 579.661C1097.68 577.956 1093.56 580.04 1092.56 587.05C1091.76 592.781 1094.32 596.238 1105.3 597.801L1108.9 598.322C1110.37 594.154 1112.78 589.418 1113.21 586.434C1113.44 584.776 1113.21 582.977 1110.94 581.935L1111.08 581.84Z" fill="#482011"/>
</g>
<g id="dotLeft">
<mask id="path-33-inside-2_17_2" fill="white">
<path d="M316.844 503.548C326.833 503.548 334.93 495.448 334.93 485.456C334.93 475.463 326.833 467.363 316.844 467.363C306.855 467.363 298.758 475.463 298.758 485.456C298.758 495.448 306.855 503.548 316.844 503.548Z"/>
</mask>
<path d="M316.844 503.548C326.833 503.548 334.93 495.448 334.93 485.456C334.93 475.463 326.833 467.363 316.844 467.363C306.855 467.363 298.758 475.463 298.758 485.456C298.758 495.448 306.855 503.548 316.844 503.548Z" fill="#482011" stroke="#482011" stroke-width="2" mask="url(#path-33-inside-2_17_2)"/>
</g>
<g id="w">
<path id="leafLeft" d="M610.154 423.315C610.296 425.067 609.16 426.63 607.503 427.009C586.102 431.982 578.148 440.981 578.148 454.811C578.148 457.937 578.29 461.632 578.669 465.847C577.059 488.676 548.272 426.346 548.272 426.346C555.422 420.615 572.703 416.684 584.871 416.684C592.257 416.684 600.827 417.868 607.739 420.236C609.065 420.662 610.012 421.847 610.107 423.267L610.154 423.315Z" fill="#7F963E"/>
<path id="leafRight" d="M830.03 423.315C829.888 425.067 831.024 426.63 832.681 427.009C854.082 431.982 862.036 440.981 862.036 454.811C862.036 457.937 861.894 461.632 861.515 465.847C863.125 488.676 891.911 426.346 891.911 426.346C884.762 420.615 867.481 416.684 855.313 416.684C847.927 416.684 839.357 417.868 832.445 420.236C831.119 420.662 830.172 421.847 830.077 423.267L830.03 423.315Z" fill="#7F963E"/>
<g id="left">
<mask id="path-36-inside-3_17_2" fill="white">
<path d="M698.691 746.096C693.909 748.985 684.393 750.88 676.249 750.88C664.318 750.88 647.131 746.096 633.306 740.365C619.955 747.991 609.444 750.88 593.251 750.88C583.687 750.88 572.75 748.985 566.548 746.096V740.839C591.831 733.213 596.139 722.699 596.139 704.559C596.139 695.039 593.299 682.108 588.517 667.331L541.265 524.578C519.817 459.216 515.461 436.766 469.678 426.251L469.204 420.994C473.986 418.152 484.97 416.684 494.487 416.684C506.418 416.684 526.967 421.468 534.068 428.146C534.068 428.146 563.139 462.2 579.9 515.958C583.829 528.556 588.99 545.086 594.577 563.037C595.335 565.405 596.092 567.82 596.85 570.283C599.548 578.903 602.294 587.713 605.04 596.57C605.798 598.938 606.508 601.354 607.266 603.722C607.645 604.953 608.023 606.185 608.449 607.464C609.207 609.927 609.964 612.389 610.769 614.805C611.527 617.268 612.284 619.683 613.042 622.099C615.693 630.53 618.203 638.629 620.57 646.207C621.233 648.386 621.896 650.517 622.559 652.554C623.221 654.638 623.837 656.627 624.452 658.616C629.187 673.678 632.833 685.424 634.585 691.155L635.105 692.812C635.389 693.807 635.816 695.039 635.816 695.039C635.816 695.039 641.213 726.109 687.139 738.092C687.139 738.092 687.234 738.092 687.234 738.139C690.453 739.276 694.004 740.034 697.839 740.413L698.786 746.144L698.691 746.096Z"/>
</mask>
<path d="M698.691 746.096C693.909 748.985 684.393 750.88 676.249 750.88C664.318 750.88 647.131 746.096 633.306 740.365C619.955 747.991 609.444 750.88 593.251 750.88C583.687 750.88 572.75 748.985 566.548 746.096V740.839C591.831 733.213 596.139 722.699 596.139 704.559C596.139 695.039 593.299 682.108 588.517 667.331L541.265 524.578C519.817 459.216 515.461 436.766 469.678 426.251L469.204 420.994C473.986 418.152 484.97 416.684 494.487 416.684C506.418 416.684 526.967 421.468 534.068 428.146C534.068 428.146 563.139 462.2 579.9 515.958C583.829 528.556 588.99 545.086 594.577 563.037C595.335 565.405 596.092 567.82 596.85 570.283C599.548 578.903 602.294 587.713 605.04 596.57C605.798 598.938 606.508 601.354 607.266 603.722C607.645 604.953 608.023 606.185 608.449 607.464C609.207 609.927 609.964 612.389 610.769 614.805C611.527 617.268 612.284 619.683 613.042 622.099C615.693 630.53 618.203 638.629 620.57 646.207C621.233 648.386 621.896 650.517 622.559 652.554C623.221 654.638 623.837 656.627 624.452 658.616C629.187 673.678 632.833 685.424 634.585 691.155L635.105 692.812C635.389 693.807 635.816 695.039 635.816 695.039C635.816 695.039 641.213 726.109 687.139 738.092C687.139 738.092 687.234 738.092 687.234 738.139C690.453 739.276 694.004 740.034 697.839 740.413L698.786 746.144L698.691 746.096Z" fill="#2F5951" stroke="#2F5951" stroke-width="6" mask="url(#path-36-inside-3_17_2)"/>
</g>
<g id="right">
<mask id="path-37-inside-4_17_2" fill="white">
<path d="M971.169 420.994L970.696 426.251C924.912 436.766 920.556 459.169 899.108 524.578L851.857 667.331C847.075 682.108 844.234 695.039 844.234 704.559C844.234 722.699 848.542 733.213 873.825 740.839V746.096C867.623 748.985 856.638 750.88 847.122 750.88C830.882 750.88 820.419 747.991 807.067 740.365C793.242 746.096 776.055 750.88 764.124 750.88C756.028 750.88 746.464 748.985 741.682 746.096L742.629 740.365C747.032 739.986 751.009 739.039 754.56 737.571C797.882 725.825 804.321 696.886 804.7 694.944C804.7 694.849 804.7 694.849 804.7 694.849C804.7 694.849 805.315 692.907 806.404 689.355L807.304 686.418C809.292 679.977 812.322 670.22 816.015 658.427C816.631 656.485 817.246 654.448 817.909 652.364C818.572 650.28 819.235 648.149 819.898 646.017C822.265 638.439 824.774 630.293 827.426 621.909C828.183 619.494 828.941 617.078 829.698 614.615C830.456 612.153 831.214 609.69 832.018 607.227C833.107 603.817 834.196 600.359 835.238 596.854C836.895 591.597 838.505 586.34 840.162 581.13C840.92 578.667 841.677 576.204 842.482 573.741C843.618 570.047 844.755 566.447 845.891 562.847C846.648 560.479 847.359 558.111 848.116 555.79C848.542 554.322 849.016 552.854 849.489 551.385C850.105 549.396 850.72 547.454 851.336 545.512C854.792 534.382 857.964 524.199 860.568 515.815C876.808 463.716 904.6 430.135 906.305 428.098C906.305 428.098 906.305 428.114 906.305 428.146C913.454 421.468 933.955 416.684 945.886 416.684C955.403 416.684 966.387 418.105 971.169 420.994V420.994Z"/>
</mask>
<path d="M971.169 420.994L970.696 426.251C924.912 436.766 920.556 459.169 899.108 524.578L851.857 667.331C847.075 682.108 844.234 695.039 844.234 704.559C844.234 722.699 848.542 733.213 873.825 740.839V746.096C867.623 748.985 856.638 750.88 847.122 750.88C830.882 750.88 820.419 747.991 807.067 740.365C793.242 746.096 776.055 750.88 764.124 750.88C756.028 750.88 746.464 748.985 741.682 746.096L742.629 740.365C747.032 739.986 751.009 739.039 754.56 737.571C797.882 725.825 804.321 696.886 804.7 694.944C804.7 694.849 804.7 694.849 804.7 694.849C804.7 694.849 805.315 692.907 806.404 689.355L807.304 686.418C809.292 679.977 812.322 670.22 816.015 658.427C816.631 656.485 817.246 654.448 817.909 652.364C818.572 650.28 819.235 648.149 819.898 646.017C822.265 638.439 824.774 630.293 827.426 621.909C828.183 619.494 828.941 617.078 829.698 614.615C830.456 612.153 831.214 609.69 832.018 607.227C833.107 603.817 834.196 600.359 835.238 596.854C836.895 591.597 838.505 586.34 840.162 581.13C840.92 578.667 841.677 576.204 842.482 573.741C843.618 570.047 844.755 566.447 845.891 562.847C846.648 560.479 847.359 558.111 848.116 555.79C848.542 554.322 849.016 552.854 849.489 551.385C850.105 549.396 850.72 547.454 851.336 545.512C854.792 534.382 857.964 524.199 860.568 515.815C876.808 463.716 904.6 430.135 906.305 428.098C906.305 428.098 906.305 428.114 906.305 428.146C913.454 421.468 933.955 416.684 945.886 416.684C955.403 416.684 966.387 418.105 971.169 420.994V420.994Z" fill="#2F5951" stroke="#2F5951" stroke-width="6" mask="url(#path-37-inside-4_17_2)"/>
</g>
<path id="middle" d="M749.447 476.409C758.395 465.658 770.089 459.216 788.886 454.717L789.359 449.459C785.051 446.618 772.646 445.149 764.077 445.149C751.198 445.149 732.591 449.933 724.022 456.611C724.022 456.611 722.412 458.458 720.281 461.679C718.056 458.174 716.778 456.801 716.778 456.801C708.208 450.122 689.08 444.723 676.202 444.723C667.632 444.723 655.227 446.144 650.919 449.033L651.392 454.29C671.183 459.027 683.162 465.942 692.3 477.783C699.354 486.971 701.059 499.238 697.413 510.274L641.166 678.651C644.717 688.218 652.907 706.358 667.395 717.394C665.975 712.942 665.265 707.827 665.265 702.19C665.265 679.74 677.67 643.933 697.744 587.618L719.76 526.188C719.95 525.762 720.281 525.762 720.518 526.188L742.534 587.618C762.561 643.933 775.013 679.74 775.013 702.19C775.013 707.732 774.303 712.752 772.93 717.205C787.418 706.027 795.562 687.745 799.018 678.367L743.197 511.269C739.22 499.333 741.398 486.071 749.447 476.409V476.409Z" fill="#2F5951"/>
</g>
<circle id="leafLeftStart" cx="574.5" cy="464.5" r="3.5" fill="#D9D9D9"/>
<circle id="leafRightStart" cx="865.5" cy="464.5" r="3.5" fill="#D9D9D9"/>
<path id="middleStart" fill-rule="evenodd" clip-rule="evenodd" d="M667 457C669.761 457 672 454.761 672 452C672 449.239 669.761 447 667 447C664.239 447 662 449.239 662 452C662 454.761 664.239 457 667 457ZM774 457C776.761 457 779 454.761 779 452C779 449.239 776.761 447 774 447C771.239 447 769 449.239 769 452C769 454.761 771.239 457 774 457Z" fill="#D9D9D9"/>
<path id="topTextMask" fill-rule="evenodd" clip-rule="evenodd" d="M1178 514C1178 265.472 976.528 64 728 64C479.472 64 278 265.472 278 514H1178Z" fill="#D9D9D9"/>
<path id="bottomTextMask" fill-rule="evenodd" clip-rule="evenodd" d="M1178 514C1178 762.528 976.528 964 728 964C479.472 964 278 762.528 278 514H1178Z" fill="#D9D9D9"/>
</g>
</svg>
